<?xml version="1.0" encoding="UTF-8"?>
<svg width="800px" height="250px" viewBox="0 0 800 250" version="1.1" xmlns="http://www.w3.org/2000/svg" xmlns:xlink="http://www.w3.org/1999/xlink">
    <title>Progress Illustration</title>
    <defs>
        <linearGradient x1="0%" y1="0%" x2="100%" y2="100%" id="orangeGradient">
            <stop stop-color="#F0B67F" offset="0%"></stop>
            <stop stop-color="#FE5F55" offset="100%"></stop>
        </linearGradient>
        <linearGradient x1="0%" y1="0%" x2="100%" y2="100%" id="blueGradient">
            <stop stop-color="#0B3954" offset="0%"></stop>
            <stop stop-color="#4C7D9E" offset="100%"></stop>
        </linearGradient>
        <filter id="shadow" x="-20%" y="-20%" width="140%" height="140%">
            <feGaussianBlur in="SourceAlpha" stdDeviation="5" />
            <feOffset dx="0" dy="5" result="offsetblur" />
            <feComponentTransfer>
                <feFuncA type="linear" slope="0.2" />
            </feComponentTransfer>
            <feMerge>
                <feMergeNode />
                <feMergeNode in="SourceGraphic" />
            </feMerge>
        </filter>
        <pattern id="achievementPattern" patternUnits="userSpaceOnUse" width="50" height="50" patternTransform="rotate(45)">
            <rect width="50" height="50" fill="#F0B67F" opacity="0.03"></rect>
            <path d="M0,25 L50,25" stroke="#0B3954" stroke-width="1" opacity="0.05"></path>
            <path d="M25,0 L25,50" stroke="#0B3954" stroke-width="1" opacity="0.05"></path>
        </pattern>
    </defs>
    <g id="progress-illustration" stroke="none" stroke-width="1" fill="none" fill-rule="evenodd">
        <!-- Background -->
        <rect width="800" height="250" rx="15" fill="url(#achievementPattern)"></rect>
        
        <!-- User Growth Achievement -->
        <g transform="translate(100, 40)" filter="url(#shadow)">
            <circle cx="70" cy="70" r="70" fill="#FFFFFF"></circle>
            <g transform="translate(25, 25)">
                <!-- User Growth Icon -->
                <path d="M50,30 C55.52,30 60,25.52 60,20 C60,14.48 55.52,10 50,10 C44.48,10 40,14.48 40,20 C40,25.52 44.48,30 50,30 Z" fill="url(#orangeGradient)"></path>
                <path d="M60,35 L40,35 C34.5,35 30,39.5 30,45 L30,70 L70,70 L70,45 C70,39.5 65.5,35 60,35 Z" fill="url(#orangeGradient)"></path>
                
                <path d="M30,20 C35.52,20 40,15.52 40,10 C40,4.48 35.52,0 30,0 C24.48,0 20,4.48 20,10 C20,15.52 24.48,20 30,20 Z" fill="url(#orangeGradient)" opacity="0.8"></path>
                <path d="M30,25 C24.5,25 20,29.5 20,35 L20,60 L30,60 L30,40 C30,40 31,35 35,35 C35,30 30,25 30,25 Z" fill="url(#orangeGradient)" opacity="0.8"></path>
                
                <path d="M70,20 C75.52,20 80,15.52 80,10 C80,4.48 75.52,0 70,0 C64.48,0 60,4.48 60,10 C60,15.52 64.48,20 70,20 Z" fill="url(#orangeGradient)" opacity="0.8"></path>
                <path d="M70,25 C70,25 65,30 65,35 C69,35 70,40 70,40 L70,60 L80,60 L80,35 C80,29.5 75.5,25 70,25 Z" fill="url(#orangeGradient)" opacity="0.8"></path>
                
                <!-- Growth Animation -->
                <path d="M30,80 L50,60 L70,80" stroke="url(#orangeGradient)" stroke-width="3" stroke-linecap="round" stroke-linejoin="round">
                    <animate attributeName="d" values="M30,80 L50,60 L70,80;M30,85 L50,55 L70,85;M30,80 L50,60 L70,80" dur="4s" repeatCount="indefinite" />
                </path>
            </g>
            <text x="70" y="135" font-family="Arial" font-size="14" font-weight="bold" fill="url(#blueGradient)" text-anchor="middle">Growing User Base</text>
            <text x="70" y="155" font-family="Arial" font-size="12" fill="#555555" text-anchor="middle">Month over Month</text>
        </g>
        
        <!-- Successful Ports Achievement -->
        <g transform="translate(330, 40)" filter="url(#shadow)">
            <circle cx="70" cy="70" r="70" fill="#FFFFFF"></circle>
            <g transform="translate(25, 20)">
                <!-- Mobile Phone Icon -->
                <rect x="35" y="10" width="30" height="60" rx="5" stroke="url(#blueGradient)" stroke-width="2" fill="none"></rect>
                <rect x="40" y="20" width="20" height="35" rx="2" fill="url(#orangeGradient)"></rect>
                <circle cx="50" cy="60" r="5" stroke="url(#blueGradient)" stroke-width="2" fill="none"></circle>
                
                <!-- Arrow animation -->
                <g>
                    <path d="M20,40 L35,40" stroke="url(#orangeGradient)" stroke-width="2" stroke-linecap="round">
                        <animate attributeName="x1" values="20;15;20" dur="2s" repeatCount="indefinite" />
                    </path>
                    <path d="M25,35 L20,40 L25,45" stroke="url(#orangeGradient)" stroke-width="2" stroke-linecap="round" stroke-linejoin="round">
                        <animate attributeName="x1" values="25;20;25" dur="2s" repeatCount="indefinite" />
                        <animate attributeName="x2" values="20;15;20" dur="2s" repeatCount="indefinite" />
                        <animate attributeName="x3" values="25;20;25" dur="2s" repeatCount="indefinite" />
                    </path>
                </g>
                
                <g>
                    <path d="M65,40 L80,40" stroke="url(#orangeGradient)" stroke-width="2" stroke-linecap="round">
                        <animate attributeName="x2" values="80;85;80" dur="2s" repeatCount="indefinite" />
                    </path>
                    <path d="M75,35 L80,40 L75,45" stroke="url(#orangeGradient)" stroke-width="2" stroke-linecap="round" stroke-linejoin="round">
                        <animate attributeName="x1" values="75;80;75" dur="2s" repeatCount="indefinite" />
                        <animate attributeName="x2" values="80;85;80" dur="2s" repeatCount="indefinite" />
                        <animate attributeName="x3" values="75;80;75" dur="2s" repeatCount="indefinite" />
                    </path>
                </g>
                
                <!-- Sim Card Detail -->
                <rect x="32" y="75" width="15" height="10" rx="2" fill="url(#orangeGradient)"></rect>
                <rect x="55" y="75" width="15" height="10" rx="2" fill="url(#orangeGradient)"></rect>
                <path d="M40,80 L60,80" stroke="url(#orangeGradient)" stroke-width="2" stroke-dasharray="2,2" stroke-linecap="round">
                    <animate attributeName="stroke-dashoffset" values="0;4" dur="1s" repeatCount="indefinite" />
                </path>
            </g>
            <text x="70" y="135" font-family="Arial" font-size="14" font-weight="bold" fill="url(#blueGradient)" text-anchor="middle">Successful Ports</text>
            <text x="70" y="155" font-family="Arial" font-size="12" fill="#555555" text-anchor="middle">Seamless Switching</text>
        </g>
        
        <!-- Partnerships Achievement -->
        <g transform="translate(560, 40)" filter="url(#shadow)">
            <circle cx="70" cy="70" r="70" fill="#FFFFFF"></circle>
            <g transform="translate(20, 25)">
                <!-- Partnership Handshake Icon -->
                <path d="M30,40 C35,35 40,35 45,40 L55,50 C60,55 65,55 70,50 L80,40 C85,35 90,35 95,40" stroke="url(#blueGradient)" stroke-width="3" fill="none" stroke-linecap="round" stroke-linejoin="round"></path>
                <path d="M30,50 C35,45 40,45 45,50 L55,60 C60,65 65,65 70,60 L80,50 C85,45 90,45 95,50" stroke="url(#orangeGradient)" stroke-width="3" fill="none" stroke-linecap="round" stroke-linejoin="round"></path>
                
                <!-- Connection Circles -->
                <circle cx="30" cy="30" r="15" fill="url(#blueGradient)" opacity="0.8"></circle>
                <circle cx="95" cy="30" r="15" fill="url(#orangeGradient)" opacity="0.8"></circle>
                
                <!-- Pulsing Connection Line -->
                <path d="M45,30 L80,30" stroke="url(#blueGradient)" stroke-width="2" stroke-dasharray="4,4" opacity="0.7">
                    <animate attributeName="stroke-dashoffset" values="0;8" dur="2s" repeatCount="indefinite" />
                </path>
            </g>
            <text x="70" y="135" font-family="Arial" font-size="14" font-weight="bold" fill="url(#blueGradient)" text-anchor="middle">Operator Partnerships</text>
            <text x="70" y="155" font-family="Arial" font-size="12" fill="#555555" text-anchor="middle">Building Connections</text>
        </g>
        
        <!-- Connecting Dots -->
        <g>
            <path d="M240,110 C280,90 280,130 320,110" stroke="url(#orangeGradient)" stroke-width="2" stroke-dasharray="5,5"></path>
            <path d="M470,110 C510,90 510,130 550,110" stroke="url(#orangeGradient)" stroke-width="2" stroke-dasharray="5,5"></path>
            
            <circle cx="240" cy="110" r="5" fill="url(#orangeGradient)">
                <animate attributeName="r" values="3;5;3" dur="2s" repeatCount="indefinite" />
            </circle>
            <circle cx="320" cy="110" r="5" fill="url(#orangeGradient)">
                <animate attributeName="r" values="3;5;3" dur="2s" repeatCount="indefinite" begin="0.2s" />
            </circle>
            <circle cx="470" cy="110" r="5" fill="url(#orangeGradient)">
                <animate attributeName="r" values="3;5;3" dur="2s" repeatCount="indefinite" begin="0.4s" />
            </circle>
            <circle cx="550" cy="110" r="5" fill="url(#orangeGradient)">
                <animate attributeName="r" values="3;5;3" dur="2s" repeatCount="indefinite" begin="0.6s" />
            </circle>
        </g>
        
        <!-- Timeline Progress Bar -->
        <g>
            <rect x="100" y="200" width="600" height="10" rx="5" fill="url(#blueGradient)" opacity="0.2"></rect>
            <rect x="100" y="200" width="240" height="10" rx="5" fill="url(#orangeGradient)">
                <animate attributeName="width" values="200;240;220" dur="5s" repeatCount="indefinite" />
            </rect>
            
            <!-- Timeline Markers -->
            <circle cx="100" cy="205" r="5" fill="url(#blueGradient)"></circle>
            <text x="100" y="230" font-family="Arial" font-size="12" fill="#555555" text-anchor="middle">Start</text>
            
            <circle cx="240" cy="205" r="5" fill="url(#orangeGradient)">
                <animate attributeName="cx" values="200;240;220" dur="5s" repeatCount="indefinite" />
            </circle>
            <text x="240" cy="230" font-family="Arial" font-size="12" fill="#555555" text-anchor="middle">Current</text>
            
            <circle cx="700" cy="205" r="5" fill="url(#blueGradient)" opacity="0.5"></circle>
            <text x="700" y="230" font-family="Arial" font-size="12" fill="#555555" text-anchor="middle">Future</text>
        </g>
    </g>
</svg> 