<?xml version="1.0" encoding="UTF-8"?>
<svg width="119.66407" height="40" viewBox="0 0 119.66407 40" version="1.1" xmlns="http://www.w3.org/2000/svg">
    <title>Download on the App Store</title>
    <g fill="none" fill-rule="evenodd">
        <!-- Background -->
        <rect x="0" y="0" width="119.66407" height="40" rx="6" fill="#000000"/>
        
        <!-- Apple Logo -->
        <g transform="translate(8.5,8)" fill="#FFFFFF">
            <path d="M17.6725,12.5414 C17.4516,13.0344 17.1896,13.4766 16.8865,13.8677 C16.4819,14.3917 16.0363,14.7547 15.5504,14.9577 C15.0644,15.1607 14.5474,15.2627 13.9994,15.2627 C13.4104,15.2627 12.8634,15.1397 12.3574,14.8927 C11.8514,14.6457 11.4914,14.3287 11.2784,13.9417 C11.0654,13.5547 10.9584,13.1337 10.9584,12.6787 C10.9584,12.1827 11.0754,11.7297 11.3094,11.3217 C11.5434,10.9137 11.8674,10.5857 12.2824,10.3387 C12.6974,10.0917 13.1534,9.9377 13.6504,9.8777 C14.1474,9.8177 14.7914,9.7887 15.5814,9.7887 L16.8865,9.7887 L16.8865,9.2617 C16.8865,8.6517 16.7065,8.1807 16.3485,7.8497 C15.9905,7.5187 15.4835,7.3527 14.8275,7.3527 C14.2485,7.3527 13.7885,7.4777 13.4475,7.7277 C13.1065,7.9777 12.8565,8.2827 12.6975,8.6427 L11.1485,8.6427 C11.2665,8.1057 11.4925,7.6497 11.8265,7.2747 C12.1605,6.8997 12.5815,6.6137 13.0885,6.4157 C13.5955,6.2177 14.1505,6.1187 14.7535,6.1187 C15.3565,6.1187 15.9115,6.2177 16.4185,6.4157 C16.9255,6.6137 17.3415,6.9007 17.6665,7.2747 C17.9915,7.6487 18.1535,8.1057 18.1535,8.6427 L18.1535,15.0387 L16.8865,15.0387 L16.8865,13.9417 C16.7095,14.2727 16.4605,14.5777 16.1395,14.8577 C15.8185,15.1377 15.4185,15.2777 14.9385,15.2777 C14.4585,15.2777 14.0185,15.1527 13.6185,14.9027 C13.2185,14.6527 12.9085,14.3137 12.6885,13.8857 C12.4685,13.4577 12.3585,12.9847 12.3585,12.4677 C12.3585,11.9507 12.4685,11.4777 12.6885,11.0497 C12.9085,10.6217 13.2185,10.2827 13.6185,10.0327 C14.0185,9.7827 14.4585,9.6577 14.9385,9.6577 C15.4185,9.6577 15.8185,9.7977 16.1395,10.0777 C16.4605,10.3577 16.7095,10.6627 16.8865,10.9937 L16.8865,9.8967 L15.5814,9.8967 C14.8514,9.8967 14.2514,9.9227 13.7814,9.9747 C13.3114,10.0267 12.9184,10.1247 12.6024,10.2687 C12.2864,10.4127 12.0474,10.6077 11.8864,10.8537 C11.7254,11.0997 11.6444,11.3967 11.6444,11.7447 C11.6444,12.0927 11.7254,12.3897 11.8864,12.6357 C12.0474,12.8817 12.2864,13.0767 12.6024,13.2207 C12.9184,13.3647 13.3114,13.4627 13.7814,13.5147 C14.2514,13.5667 14.8514,13.5927 15.5814,13.5927 L16.8865,13.5927 L16.8865,12.5414 L17.6725,12.5414 Z"/>
            <path d="M23.1669,15.0387 L21.8999,15.0387 L21.8999,6.3427 L23.1669,6.3427 L23.1669,7.4397 C23.3439,7.1087 23.5929,6.8037 23.9139,6.5237 C24.2349,6.2437 24.6349,6.1037 25.1149,6.1037 C25.5949,6.1037 26.0349,6.2287 26.4349,6.4787 C26.8349,6.7287 27.1449,7.0677 27.3649,7.4957 C27.5849,7.9237 27.6949,8.3967 27.6949,8.9137 C27.6949,9.4307 27.5849,9.9037 27.3649,10.3317 C27.1449,10.7597 26.8349,11.0987 26.4349,11.3487 C26.0349,11.5987 25.5949,11.7237 25.1149,11.7237 C24.6349,11.7237 24.2349,11.5837 23.9139,11.3037 C23.5929,11.0237 23.3439,10.7187 23.1669,10.3877 L23.1669,15.0387 Z M26.4089,10.3467 C26.6689,10.1637 26.8739,9.9297 27.0239,9.6447 C27.1739,9.3597 27.2489,9.0477 27.2489,8.7087 C27.2489,8.3697 27.1739,8.0577 27.0239,7.7727 C26.8739,7.4877 26.6689,7.2537 26.4089,7.0707 C26.1489,6.8877 25.8589,6.7957 25.5389,6.7957 C25.2189,6.7957 24.9289,6.8877 24.6689,7.0707 C24.4089,7.2537 24.2039,7.4877 24.0539,7.7727 C23.9039,8.0577 23.8289,8.3697 23.8289,8.7087 C23.8289,9.0477 23.9039,9.3597 24.0539,9.6447 C24.2039,9.9297 24.4089,10.1637 24.6689,10.3467 C24.9289,10.5297 25.2189,10.6217 25.5389,10.6217 C25.8589,10.6217 26.1489,10.5297 26.4089,10.3467 Z"/>
            <path d="M33.4334,11.7237 C32.8444,11.7237 32.2974,11.6007 31.7914,11.3537 C31.2854,11.1067 30.9254,10.7897 30.7124,10.4027 C30.4994,10.0157 30.3924,9.5947 30.3924,9.1397 C30.3924,8.6437 30.5094,8.1907 30.7434,7.7827 C30.9774,7.3747 31.3014,7.0467 31.7164,6.7997 C32.1314,6.5527 32.5874,6.3987 33.0844,6.3387 C33.5814,6.2787 34.2254,6.2497 35.0154,6.2497 L36.3204,6.2497 L36.3204,5.7227 C36.3204,5.1127 36.1404,4.6417 35.7824,4.3107 C35.4244,3.9797 34.9174,3.8137 34.2614,3.8137 C33.6824,3.8137 33.2224,3.9387 32.8814,4.1887 C32.5404,4.4387 32.2904,4.7437 32.1314,5.1037 L30.5824,5.1037 C30.7004,4.5667 30.9264,4.1107 31.2604,3.7357 C31.5944,3.3607 32.0154,3.0747 32.5224,2.8767 C33.0294,2.6787 33.5844,2.5797 34.1874,2.5797 C34.7904,2.5797 35.3454,2.6787 35.8524,2.8767 C36.3594,3.0747 36.7754,3.3617 37.1004,3.7357 C37.4254,4.1097 37.5874,4.5667 37.5874,5.1037 L37.5874,11.4997 L36.3204,11.4997 L36.3204,10.4027 C36.1434,10.7337 35.8944,11.0387 35.5734,11.3187 C35.2524,11.5987 34.8524,11.7387 34.3724,11.7387 C33.8924,11.7387 33.4524,11.6137 33.0524,11.3637 C32.6524,11.1137 32.3424,10.7747 32.1224,10.3467 C31.9024,9.9187 31.7924,9.4457 31.7924,8.9287 C31.7924,8.4117 31.9024,7.9387 32.1224,7.5107 C32.3424,7.0827 32.6524,6.7437 33.0524,6.4937 C33.4524,6.2437 33.8924,6.1187 34.3724,6.1187 C34.8524,6.1187 35.2524,6.2587 35.5734,6.5387 C35.8944,6.8187 36.1434,7.1237 36.3204,7.4547 L36.3204,6.3577 L35.0154,6.3577 C34.2854,6.3577 33.6854,6.3837 33.2154,6.4357 C32.7454,6.4877 32.3524,6.5857 32.0364,6.7297 C31.7204,6.8737 31.4814,7.0687 31.3204,7.3147 C31.1594,7.5607 31.0784,7.8577 31.0784,8.2057 C31.0784,8.5537 31.1594,8.8507 31.3204,9.0967 C31.4814,9.3427 31.7204,9.5377 32.0364,9.6817 C32.3524,9.8257 32.7454,9.9237 33.2154,9.9757 C33.6854,10.0277 34.2854,10.0537 35.0154,10.0537 L36.3204,10.0537 L36.3204,9.0024 L37.1064,9.0024 C36.8854,9.4954 36.6234,9.9376 36.3204,10.3287 C35.9158,10.8527 35.4702,11.2157 34.9842,11.4187 C34.4982,11.6217 33.9814,11.7237 33.4334,11.7237 Z"/>
        </g>
        
        <!-- Download on the -->
        <text fill="#FFFFFF" font-family="Arial-BoldMT, Arial" font-size="6" font-weight="bold">
            <tspan x="44.5" y="14">Download on the</tspan>
        </text>
        
        <!-- App Store -->
        <text fill="#FFFFFF" font-family="Arial-BoldMT, Arial" font-size="15" font-weight="bold">
            <tspan x="44.5" y="29">App Store</tspan>
        </text>
    </g>
</svg> 