<?xml version="1.0" encoding="UTF-8"?>
<svg width="119.66407" height="40" viewBox="0 0 119.66407 40" version="1.1" xmlns="http://www.w3.org/2000/svg">
    <title>Get it on Google Play</title>
    <g fill="none" fill-rule="evenodd">
        <!-- Background -->
        <rect x="0" y="0" width="119.66407" height="40" rx="6" fill="#000000"/>
        
        <!-- Google Play Logo -->
        <g transform="translate(8.5,8)" fill="#FFFFFF">
            <path d="M21.0002,0.0004 L3.9992,0.0004 C3.4472,0.0004 2.9992,0.4474 2.9992,1.0004 L2.9992,19.0004 C2.9992,19.5524 3.4472,20.0004 3.9992,20.0004 L21.0002,20.0004 C21.5522,20.0004 22.0002,19.5524 22.0002,19.0004 L22.0002,1.0004 C22.0002,0.4474 21.5522,0.0004 21.0002,0.0004 Z M12.5002,15.5004 L6.9992,9.9994 L12.5002,4.4994 L18.0002,9.9994 L12.5002,15.5004 Z"/>
            <path d="M11.0002,7.4994 L6.9992,9.9994 L11.0002,12.4994 L14.0002,9.9994 L11.0002,7.4994 Z" fill-opacity="0.4"/>
            <path d="M14.0002,9.9994 L11.0002,12.4994 L12.5002,15.5004 L18.0002,9.9994 L14.0002,9.9994 Z" fill-opacity="0.6"/>
            <path d="M6.9992,9.9994 L11.0002,7.4994 L12.5002,4.4994 L6.9992,9.9994 Z" fill-opacity="0.8"/>
        </g>
        
        <!-- Get it on -->
        <text fill="#FFFFFF" font-family="Arial-BoldMT, Arial" font-size="6" font-weight="bold">
            <tspan x="44.5" y="14">GET IT ON</tspan>
        </text>
        
        <!-- Google Play -->
        <text fill="#FFFFFF" font-family="Arial-BoldMT, Arial" font-size="15" font-weight="bold">
            <tspan x="44.5" y="29">Google Play</tspan>
        </text>
    </g>
</svg> 