<?xml version="1.0" encoding="UTF-8"?>
<svg xmlns="http://www.w3.org/2000/svg" width="600" height="400" viewBox="0 0 600 400">
  <rect width="600" height="400" fill="#252836"/>
  
  <defs>
    <linearGradient id="gradPrimary" x1="0%" y1="0%" x2="100%" y2="100%">
      <stop offset="0%" stop-color="#f0b67f"/>
      <stop offset="100%" stop-color="#fe5f55"/>
    </linearGradient>
    <linearGradient id="gradDark" x1="0%" y1="0%" x2="100%" y2="100%">
      <stop offset="0%" stop-color="#343a40"/>
      <stop offset="100%" stop-color="#1e2329"/>
    </linearGradient>
    <filter id="shadow" x="-20%" y="-20%" width="140%" height="140%">
      <feDropShadow dx="0" dy="5" stdDeviation="10" flood-color="#000" flood-opacity="0.3"/>
    </filter>
  </defs>
  
  <!-- Phone 1 (Left) -->
  <g filter="url(#shadow)">
    <rect x="120" y="80" width="120" height="240" rx="20" fill="url(#gradDark)" stroke="#485e74" stroke-width="3"/>
    <rect x="130" y="100" width="100" height="180" rx="3" fill="#1a1d24"/>
    
    <!-- Phone 1 Content -->
    <circle cx="180" cy="140" r="25" fill="#f0b67f" opacity="0.2"/>
    <circle cx="180" cy="140" r="20" fill="#f0b67f" opacity="0.3"/>
    <text x="180" y="145" font-family="Arial, sans-serif" font-size="12" fill="#fff" text-anchor="middle">01</text>
    
    <rect x="150" y="180" width="60" height="10" rx="5" fill="#3a3e45"/>
    <rect x="150" y="200" width="60" height="10" rx="5" fill="#3a3e45"/>
    <rect x="150" y="220" width="30" height="10" rx="5" fill="#3a3e45"/>
    
    <!-- SIM Card -->
    <rect x="155" y="250" width="50" height="30" rx="3" fill="#f0b67f" opacity="0.8"/>
    <line x1="165" y1="260" x2="195" y2="260" stroke="#fff" stroke-width="1" opacity="0.5"/>
    <line x1="165" y1="270" x2="185" y2="270" stroke="#fff" stroke-width="1" opacity="0.5"/>
  </g>
  
  <!-- Phone 2 (Right) -->
  <g filter="url(#shadow)">
    <rect x="360" y="80" width="120" height="240" rx="20" fill="url(#gradDark)" stroke="#485e74" stroke-width="3"/>
    <rect x="370" y="100" width="100" height="180" rx="3" fill="#1a1d24"/>
    
    <!-- Phone 2 Content -->
    <circle cx="420" cy="140" r="25" fill="#f0b67f" opacity="0.2"/>
    <circle cx="420" cy="140" r="20" fill="#f0b67f" opacity="0.3"/>
    <text x="420" y="145" font-family="Arial, sans-serif" font-size="12" fill="#fff" text-anchor="middle">02</text>
    
    <rect x="390" y="180" width="60" height="10" rx="5" fill="#3a3e45"/>
    <rect x="390" y="200" width="60" height="10" rx="5" fill="#3a3e45"/>
    <rect x="390" y="220" width="30" height="10" rx="5" fill="#3a3e45"/>
    
    <!-- SIM Card -->
    <rect x="395" y="250" width="50" height="30" rx="3" fill="#f0b67f" opacity="0.8"/>
    <line x1="405" y1="260" x2="435" y2="260" stroke="#fff" stroke-width="1" opacity="0.5"/>
    <line x1="405" y1="270" x2="425" y2="270" stroke="#fff" stroke-width="1" opacity="0.5"/>
  </g>
  
  <!-- Transfer Arrow -->
  <g filter="url(#shadow)">
    <line x1="250" y1="200" x2="330" y2="200" stroke="url(#gradPrimary)" stroke-width="10" stroke-linecap="round"/>
    <path d="M310,180 L340,200 L310,220" stroke="url(#gradPrimary)" stroke-width="10" stroke-linecap="round" stroke-linejoin="round"/>
  </g>
  
  <!-- Signal Waves -->
  <g opacity="0.6">
    <path d="M80,120 Q120,80 160,120" stroke="url(#gradPrimary)" stroke-width="3" fill="none"/>
    <path d="M70,100 Q120,50 170,100" stroke="url(#gradPrimary)" stroke-width="2" fill="none"/>
    <path d="M60,80 Q120,20 180,80" stroke="url(#gradPrimary)" stroke-width="1" fill="none"/>
    
    <path d="M440,120 Q480,80 520,120" stroke="url(#gradPrimary)" stroke-width="3" fill="none"/>
    <path d="M430,100 Q480,50 530,100" stroke="url(#gradPrimary)" stroke-width="2" fill="none"/>
    <path d="M420,80 Q480,20 540,80" stroke="url(#gradPrimary)" stroke-width="1" fill="none"/>
  </g>
  
  <!-- Text Elements -->
  <text x="180" y="50" font-family="Arial, sans-serif" font-size="16" fill="#f0b67f" text-anchor="middle">Current Provider</text>
  <text x="420" y="50" font-family="Arial, sans-serif" font-size="16" fill="#f0b67f" text-anchor="middle">New Provider</text>
  
  <text x="300" y="340" font-family="Arial, sans-serif" font-size="24" fill="url(#gradPrimary)" text-anchor="middle" font-weight="bold">Port Your Number</text>
  <text x="300" y="370" font-family="Arial, sans-serif" font-size="14" fill="#ffffff" text-anchor="middle">Seamless Transfer Between Providers</text>
</svg> 