<?xml version="1.0" encoding="UTF-8"?>
<svg width="800px" height="500px" viewBox="0 0 800 500" version="1.1" xmlns="http://www.w3.org/2000/svg">
    <title>US Map Placeholder</title>
    <g stroke="#ffffff" stroke-width="1" fill="none">
        <!-- Continental US simplified outline -->
        <path d="M215,184 L232,134 L243,101 L270,108 L300,108 L347,103 L392,94 L427,82 L466,82 L493,76 L519,81 L545,81 L565,74 L591,81 L622,82 L636,94 L650,108 L650,129 L636,150 L618,168 L590,170 L566,177 L545,183 L545,199 L549,210 L553,232 L565,252 L574,270 L589,293 L589,310 L574,310 L553,317 L525,325 L498,325 L470,325 L441,325 L432,317 L420,317 L403,325 L387,332 L367,337 L347,341 L333,341 L323,332 L307,325 L290,325 L275,318 L259,315 L243,315 L231,310 L218,303 L205,296 L196,289 L186,280 L182,269 L186,258 L192,246 L192,235 L189,222 L182,211 L182,198 L189,189 L201,184 L215,184 Z"></path>
        
        <!-- Alaska simplified outline -->
        <path d="M110,300 L125,285 L145,275 L170,273 L190,277 L205,285 L218,300 L215,320 L205,335 L190,345 L170,350 L145,347 L130,340 L119,330 L112,315 L110,300 Z"></path>
        
        <!-- Hawaii simplified islands -->
        <path d="M220,375 C226,375 231,380 231,386 C231,392 226,397 220,397 C214,397 209,392 209,386 C209,380 214,375 220,375 Z"></path>
        <path d="M235,370 C241,370 246,375 246,381 C246,387 241,392 235,392 C229,392 224,387 224,381 C224,375 229,370 235,370 Z"></path>
        <path d="M250,377 C254,377 258,381 258,385 C258,389 254,393 250,393 C246,393 242,389 242,385 C242,381 246,377 250,377 Z"></path>
        <path d="M262,385 C266,385 269,388 269,392 C269,396 266,399 262,399 C258,399 255,396 255,392 C255,388 258,385 262,385 Z"></path>
        <path d="M274,383 C277,383 280,386 280,389 C280,392 277,395 274,395 C271,395 268,392 268,389 C268,386 271,383 274,383 Z"></path>
    </g>
    
    <!-- State borders - simplified -->
    <g stroke="#ffffff" stroke-width="0.5" opacity="0.3">
        <!-- Some vertical and horizontal lines to simulate state borders -->
        <line x1="250" y1="108" x2="250" y2="310"></line>
        <line x1="350" y1="94" x2="350" y2="325"></line>
        <line x1="450" y1="82" x2="450" y2="325"></line>
        <line x1="550" y1="81" x2="550" y2="270"></line>
        
        <line x1="232" y1="150" x2="650" y2="150"></line>
        <line x1="215" y1="220" x2="565" y2="220"></line>
        <line x1="196" y1="280" x2="589" y2="280"></line>
    </g>
</svg> 
